<?xml version="1.0" encoding="UTF-8" standalone="no"?>
<svg
   id="svg3430"
   width="800"
   height="800"
   viewBox="0 0 799.99974 800.00104"
   version="1.1"
   sodipodi:docname="multiflexi-executor-docker.svg"
   inkscape:version="1.4 (e7c3feb100, 2024-10-09)"
   xmlns:inkscape="http://www.inkscape.org/namespaces/inkscape"
   xmlns:sodipodi="http://sodipodi.sourceforge.net/DTD/sodipodi-0.dtd"
   xmlns="http://www.w3.org/2000/svg"
   xmlns:svg="http://www.w3.org/2000/svg"
   xmlns:rdf="http://www.w3.org/1999/02/22-rdf-syntax-ns#"
   xmlns:cc="http://creativecommons.org/ns#"
   xmlns:dc="http://purl.org/dc/elements/1.1/">
  <metadata
     id="metadata41">
    <rdf:RDF>
      <cc:Work
         rdf:about="">
        <dc:format>image/svg+xml</dc:format>
        <dc:type
           rdf:resource="http://purl.org/dc/dcmitype/StillImage" />
        <dc:title />
      </cc:Work>
    </rdf:RDF>
  </metadata>
  <sodipodi:namedview
     pagecolor="#ffffff"
     bordercolor="#666666"
     borderopacity="1"
     objecttolerance="10"
     gridtolerance="10"
     guidetolerance="10"
     inkscape:pageopacity="0"
     inkscape:pageshadow="2"
     inkscape:window-width="1366"
     inkscape:window-height="696"
     id="namedview39"
     showgrid="false"
     inkscape:zoom="0.87006406"
     inkscape:cx="210.32934"
     inkscape:cy="468.93099"
     inkscape:window-x="0"
     inkscape:window-y="0"
     inkscape:window-maximized="1"
     inkscape:current-layer="svg3430"
     inkscape:showpageshadow="2"
     inkscape:pagecheckerboard="0"
     inkscape:deskcolor="#d1d1d1" />
  <defs
     id="defs3434">
    <clipPath
       id="clipPath3444">
      <path
         id="path3446"
         d="M 11.52,162 C 11.52,81.677 135.307,16.56 288,16.56 440.693,16.56 564.48,81.678 564.48,162 564.48,242.322 440.693,307.44 288,307.44 135.307,307.44 11.52,242.32 11.52,162"
         inkscape:connector-curvature="0" />
    </clipPath>
    <radialGradient
       id="radialGradient3452"
       cx="0"
       cy="0"
       r="1"
       fx="0"
       fy="0"
       gradientTransform="matrix(363.06,0,0,-363.06,177.52,256.31)"
       gradientUnits="userSpaceOnUse"
       spreadMethod="pad">
      <stop
         id="stop3454"
         offset="0"
         stop-color="#aeb2d5" />
      <stop
         id="stop3456"
         offset="0.3"
         stop-color="#aeb2d5" />
      <stop
         id="stop3458"
         offset="0.75"
         stop-color="#484c89" />
      <stop
         id="stop3460"
         offset="1"
         stop-color="#484c89" />
    </radialGradient>
    <clipPath
       id="clipPath3468">
      <path
         id="path3470"
         d="M 0,324 H 576 V 0 H 0 Z"
         inkscape:connector-curvature="0" />
    </clipPath>
    <clipPath
       id="clipPath3480">
      <path
         id="path3482"
         d="M 0,324 H 576 V 0 H 0 Z"
         inkscape:connector-curvature="0" />
    </clipPath>
    <filter
       style="color-interpolation-filters:sRGB"
       inkscape:label="Drop Shadow"
       id="filter4622"
       x="-0.1215186"
       y="-0.21051334"
       width="1.29367"
       height="1.5087406">
      <feFlood
         flood-opacity="0.498039"
         flood-color="rgb(0,0,0)"
         result="flood"
         id="feFlood4612" />
      <feComposite
         in="flood"
         in2="SourceGraphic"
         operator="in"
         result="composite1"
         id="feComposite4614" />
      <feGaussianBlur
         in="composite1"
         stdDeviation="6"
         result="blur"
         id="feGaussianBlur4616" />
      <feOffset
         dx="6"
         dy="6"
         result="offset"
         id="feOffset4618" />
      <feComposite
         in="SourceGraphic"
         in2="offset"
         operator="over"
         result="fbSourceGraphic"
         id="feComposite4620" />
      <feColorMatrix
         result="fbSourceGraphicAlpha"
         in="fbSourceGraphic"
         values="0 0 0 -1 0 0 0 0 -1 0 0 0 0 -1 0 0 0 0 1 0"
         id="feColorMatrix4624" />
      <feFlood
         id="feFlood4626"
         flood-opacity="0.498039"
         flood-color="rgb(0,0,0)"
         result="flood"
         in="fbSourceGraphic" />
      <feComposite
         in2="fbSourceGraphic"
         id="feComposite4628"
         in="flood"
         operator="in"
         result="composite1" />
      <feGaussianBlur
         id="feGaussianBlur4630"
         in="composite1"
         stdDeviation="6"
         result="blur" />
      <feOffset
         id="feOffset4632"
         dx="6"
         dy="6"
         result="offset" />
      <feComposite
         in2="offset"
         id="feComposite4634"
         in="fbSourceGraphic"
         operator="over"
         result="fbSourceGraphic" />
      <feColorMatrix
         result="fbSourceGraphicAlpha"
         in="fbSourceGraphic"
         values="0 0 0 -1 0 0 0 0 -1 0 0 0 0 -1 0 0 0 0 1 0"
         id="feColorMatrix4636" />
      <feFlood
         id="feFlood4638"
         flood-opacity="0.498039"
         flood-color="rgb(0,0,0)"
         result="flood"
         in="fbSourceGraphic" />
      <feComposite
         in2="fbSourceGraphic"
         id="feComposite4640"
         in="flood"
         operator="in"
         result="composite1" />
      <feGaussianBlur
         id="feGaussianBlur4642"
         in="composite1"
         stdDeviation="6"
         result="blur" />
      <feOffset
         id="feOffset4644"
         dx="6"
         dy="6"
         result="offset" />
      <feComposite
         in2="offset"
         id="feComposite4646"
         in="fbSourceGraphic"
         operator="over"
         result="composite2" />
    </filter>
    <filter
       style="color-interpolation-filters:sRGB"
       inkscape:label="Color Shift"
       id="filter3861">
      <feColorMatrix
         type="hueRotate"
         values="112"
         result="color1"
         id="feColorMatrix3857" />
      <feColorMatrix
         type="saturate"
         values="0.6"
         result="fbSourceGraphic"
         id="feColorMatrix3859" />
      <feColorMatrix
         result="fbSourceGraphicAlpha"
         in="fbSourceGraphic"
         values="0 0 0 -1 0 0 0 0 -1 0 0 0 0 -1 0 0 0 0 1 0"
         id="feColorMatrix3863" />
      <feColorMatrix
         id="feColorMatrix3865"
         type="hueRotate"
         values="112"
         result="color1"
         in="fbSourceGraphic" />
      <feColorMatrix
         id="feColorMatrix3867"
         type="saturate"
         values="0.6"
         result="color2" />
    </filter>
    <filter
       style="color-interpolation-filters:sRGB"
       inkscape:label="Color Shift"
       id="filter3873">
      <feColorMatrix
         type="hueRotate"
         values="112"
         result="color1"
         id="feColorMatrix3869" />
      <feColorMatrix
         type="saturate"
         values="0.6"
         result="fbSourceGraphic"
         id="feColorMatrix3871" />
      <feColorMatrix
         result="fbSourceGraphicAlpha"
         in="fbSourceGraphic"
         values="0 0 0 -1 0 0 0 0 -1 0 0 0 0 -1 0 0 0 0 1 0"
         id="feColorMatrix3911" />
      <feColorMatrix
         id="feColorMatrix3913"
         type="hueRotate"
         values="323"
         result="color1"
         in="fbSourceGraphic" />
      <feColorMatrix
         id="feColorMatrix3915"
         type="saturate"
         values="0.61"
         result="color2" />
    </filter>
    <filter
       style="color-interpolation-filters:sRGB"
       inkscape:label="Color Shift"
       id="filter4017"
       x="-0.1215186"
       y="-0.21051334"
       width="1.2936701"
       height="1.5087405">
      <feColorMatrix
         type="hueRotate"
         values="327"
         result="color1"
         id="feColorMatrix4013" />
      <feColorMatrix
         type="saturate"
         values="1"
         result="color2"
         id="feColorMatrix4015" />
    </filter>
    <filter
       style="color-interpolation-filters:sRGB"
       inkscape:label="Color Shift"
       id="filter4135"
       x="0"
       y="0"
       width="1"
       height="1">
      <feColorMatrix
         type="hueRotate"
         values="229"
         result="color1"
         id="feColorMatrix4131" />
      <feColorMatrix
         type="saturate"
         values="0.79"
         result="color2"
         id="feColorMatrix4133" />
    </filter>
    <linearGradient
       x1="0"
       y1="0"
       x2="1"
       y2="0"
       gradientUnits="userSpaceOnUse"
       gradientTransform="matrix(-4.02e-6,-91.8907,-91.8907,4.02e-6,85.8809,161.434)"
       spreadMethod="pad"
       id="linearGradient3027">
      <stop
         style="stop-opacity:1;stop-color:#97d9f6"
         offset="0"
         id="stop3029" />
      <stop
         style="stop-opacity:1;stop-color:#0f80cc"
         offset="0.920245"
         id="stop3031" />
      <stop
         style="stop-opacity:1;stop-color:#0f80cc"
         offset="1"
         id="stop3033" />
    </linearGradient>
    <filter
       style="color-interpolation-filters:sRGB;"
       inkscape:label="Drop Shadow"
       id="filter1553">
      <feFlood
         flood-opacity="0.498039"
         flood-color="rgb(0,0,0)"
         result="flood"
         id="feFlood1543" />
      <feComposite
         in="flood"
         in2="SourceGraphic"
         operator="in"
         result="composite1"
         id="feComposite1545" />
      <feGaussianBlur
         in="composite1"
         stdDeviation="3"
         result="blur"
         id="feGaussianBlur1547" />
      <feOffset
         dx="6"
         dy="6"
         result="offset"
         id="feOffset1549" />
      <feComposite
         in="SourceGraphic"
         in2="offset"
         operator="over"
         result="composite2"
         id="feComposite1551" />
    </filter>
    <filter
       inkscape:label="Black Hole"
       inkscape:menu="Morphology"
       inkscape:menu-tooltip="Creates a black light inside and outside"
       height="1.0441137"
       width="1.0594339"
       y="-0.022056837"
       x="-0.029716946"
       style="color-interpolation-filters:sRGB"
       id="filter776">
      <feGaussianBlur
         stdDeviation="5"
         in="SourceAlpha"
         result="result1"
         id="feGaussianBlur764" />
      <feComposite
         operator="arithmetic"
         k2="3.2"
         k1="-1"
         k4="-2"
         result="result3"
         in2="result1"
         id="feComposite766"
         k3="0" />
      <feColorMatrix
         values="1 0 0 0 0 0 1 0 0 0 0 0 1 0 0 0 0 0 10 0 "
         result="result2"
         id="feColorMatrix768" />
      <feComposite
         result="fbSourceGraphic"
         in="SourceGraphic"
         operator="out"
         in2="result2"
         id="feComposite770" />
      <feBlend
         mode="multiply"
         in="result1"
         in2="fbSourceGraphic"
         result="result91"
         id="feBlend772" />
      <feBlend
         mode="screen"
         in="fbSourceGraphic"
         in2="result91"
         id="feBlend774" />
    </filter>
  </defs>
  <g
     id="g249"
     transform="matrix(1.3246338,0,0,1.3246338,-598.58192,-231.73126)"
     style="fill:#ffd42a;fill-opacity:1;filter:url(#filter776)">
    <path
       id="path5740"
       style="color:#000000;text-indent:0;text-transform:none;fill:#ffd42a;fill-opacity:1;fill-rule:evenodd"
       inkscape:connector-curvature="0"
       d="m 713.47,204.89 v 74.226 c -91.83,18.86 -161.52,100.63 -161.52,197.79 0,96.668 69.012,178.12 160.15,197.51 L 645.092,607.408 686.15,566.35 c -26.951,-20.333 -44.214,-52.667 -44.214,-89.444 0,-48.051 29.471,-88.501 71.524,-104.52 v 115.53 L 854.98,346.396 713.47,204.886 Z" />
    <path
       id="path2985"
       style="color:#000000;text-indent:0;text-transform:none;fill:#ffd42a;fill-opacity:1;fill-rule:evenodd"
       inkscape:connector-curvature="0"
       d="m 795.61,279.41 67.008,66.993 -41.074,41.074 c 26.961,20.328 44.23,52.647 44.23,89.428 0,48.051 -29.47,88.512 -71.524,104.54 v -115.55 l -141.52,141.52 141.52,141.52 v -74.226 c 91.812,-18.87 161.51,-100.65 161.51,-197.79 0,-96.667 -69.01,-178.1 -160.15,-197.49 z" />
  </g>
  <g
     id="g16"
     transform="matrix(3.1250041,0,0,3.1250041,1.7643049,345.09906)">
    <path
       d="m 147.488,45.732 h 22.866 v 23.375 h 11.561 c 5.34,0 10.831,-0.951 15.887,-2.664 2.485,-0.843 5.273,-2.015 7.724,-3.49 -3.228,-4.214 -4.876,-9.535 -5.36,-14.78 -0.66,-7.135 0.78,-16.421 5.608,-22.005 l 2.404,-2.78 2.864,2.303 c 7.211,5.793 13.276,13.889 14.345,23.118 8.683,-2.554 18.878,-1.95 26.531,2.467 l 3.14,1.812 -1.652,3.226 C 246.933,68.946 233.4,72.86 220.17,72.167 c -19.797,49.309 -62.898,72.653 -115.157,72.653 -27,0 -51.77,-10.093 -65.876,-34.047 l -0.231,-0.39 -2.055,-4.182 C 32.083,95.657 30.499,84.106 31.573,72.564 l 0.323,-3.457 H 51.45 V 45.732 H 74.315 V 22.866 h 45.733 V 0 h 27.44 v 45.732"
       fill="#364548"
       id="path1"
       style="fill-rule:evenodd"
       sodipodi:nodetypes="cccscccccccccccsccccccccccccc" />
    <path
       d="m 221.57,54.38 c 1.533,-11.916 -7.384,-21.275 -12.914,-25.719 -6.373,7.368 -7.363,26.678 2.635,34.808 -5.58,4.956 -17.337,9.448 -29.376,9.448 H 35.37 c -1.17,12.567 1.036,24.14 6.075,34.045 l 1.667,3.05 a 56.536,56.536 0 0 0 3.455,5.184 c 6.025,0.387 11.58,0.52 16.662,0.408 h 0.002 c 9.987,-0.22 18.136,-1.4 24.312,-3.54 a 1.761,1.761 0 0 1 1.153,3.326 c -0.822,0.286 -1.678,0.552 -2.562,0.805 h -0.003 c -4.863,1.389 -10.078,2.323 -16.806,2.738 0.4,0.007 -0.416,0.06 -0.418,0.06 -0.229,0.015 -0.517,0.048 -0.747,0.06 -2.648,0.149 -5.506,0.18 -8.428,0.18 -3.196,0 -6.343,-0.06 -9.862,-0.24 l -0.09,0.06 c 12.21,13.724 31.302,21.955 55.234,21.955 50.648,0 93.608,-22.452 112.632,-72.857 13.496,1.385 26.467,-2.057 32.367,-13.575 -9.398,-5.423 -21.484,-3.694 -28.443,-0.196"
       fill="#22a0c8"
       id="path2"
       style="fill-rule:evenodd" />
    <path
       d="m 221.57,54.38 c 1.533,-11.916 -7.384,-21.275 -12.914,-25.719 -6.373,7.368 -7.363,26.678 2.635,34.808 -5.58,4.956 -17.337,9.448 -29.376,9.448 H 44.048 c -0.598,19.246 6.544,33.855 19.18,42.687 h 0.003 c 9.987,-0.22 18.136,-1.4 24.312,-3.54 a 1.761,1.761 0 0 1 1.153,3.326 c -0.822,0.286 -1.678,0.552 -2.562,0.805 h -0.003 c -4.863,1.389 -10.526,2.443 -17.254,2.858 -0.002,0 -0.163,-0.155 -0.165,-0.155 17.237,8.842 42.23,8.81 70.885,-2.197 32.13,-12.344 62.029,-35.86 82.89,-62.757 -0.314,0.142 -0.62,0.287 -0.917,0.436"
       fill="#37b1d9"
       id="path3"
       style="fill-rule:evenodd" />
    <path
       d="m 35.645,88.186 c 0.91,6.732 2.88,13.035 5.8,18.776 l 1.667,3.05 a 56.432,56.432 0 0 0 3.455,5.184 c 6.026,0.387 11.581,0.52 16.664,0.408 9.987,-0.22 18.136,-1.4 24.312,-3.54 a 1.761,1.761 0 0 1 1.153,3.326 c -0.822,0.286 -1.678,0.552 -2.562,0.805 h -0.003 c -4.863,1.389 -10.496,2.383 -17.224,2.799 -0.231,0.014 -0.634,0.017 -0.867,0.03 -2.646,0.148 -5.475,0.239 -8.398,0.239 -3.195,0 -6.463,-0.061 -9.98,-0.24 12.21,13.724 31.42,21.985 55.352,21.985 43.36,0 81.084,-16.458 102.979,-52.822 H 35.645"
       fill="#1b81a5"
       id="path4"
       style="fill-rule:evenodd" />
    <path
       d="m 45.367,88.186 c 2.592,11.82 8.821,21.099 17.864,27.418 9.987,-0.22 18.136,-1.4 24.312,-3.54 a 1.761,1.761 0 0 1 1.153,3.326 c -0.822,0.286 -1.678,0.552 -2.562,0.805 h -0.003 c -4.863,1.389 -10.615,2.383 -17.344,2.799 17.236,8.84 42.157,8.713 70.81,-2.293 17.334,-6.66 34.017,-16.574 48.984,-28.515 H 45.367"
       fill="#1d91b4"
       id="path5"
       style="fill-rule:evenodd" />
    <path
       d="M 55.26,49.543 H 75.078 V 69.361 H 55.26 Z m 1.651,1.652 h 1.564 V 67.71 h -1.564 z m 2.94,0 h 1.627 V 67.71 H 59.852 V 51.195 Z m 3.002,0 H 64.48 V 67.71 h -1.627 z m 3.004,0 h 1.626 V 67.71 h -1.626 z m 3.003,0 h 1.626 V 67.71 H 68.86 Z m 3.002,0 h 1.565 V 67.71 H 71.862 Z M 78.126,26.677 H 97.945 V 46.494 H 78.125 V 26.677 Z m 1.652,1.652 h 1.563 v 16.514 h -1.563 z m 2.94,0 h 1.626 V 44.843 H 82.719 V 28.329 Z m 3.002,0 h 1.626 V 44.843 H 85.72 Z m 3.003,0 h 1.626 v 16.514 h -1.626 z m 3.003,0 h 1.627 v 16.514 h -1.627 z m 3.002,0 h 1.566 v 16.514 h -1.566 z"
       fill="#23a3c2"
       id="path6"
       style="fill-rule:evenodd" />
    <path
       d="M 78.126,49.543 H 97.945 V 69.361 H 78.125 V 49.543 Z m 1.652,1.652 h 1.563 V 67.71 h -1.563 z m 2.94,0 h 1.626 V 67.71 H 82.719 V 51.195 Z m 3.002,0 h 1.626 V 67.71 H 85.72 Z m 3.003,0 h 1.626 V 67.71 h -1.626 z m 3.003,0 h 1.627 V 67.71 h -1.627 z m 3.002,0 h 1.566 V 67.71 h -1.566 z"
       fill="#34bbde"
       id="path7"
       style="fill-rule:evenodd" />
    <path
       d="m 100.993,49.543 h 19.818 v 19.818 h -19.818 z m 1.651,1.652 h 1.563 V 67.71 h -1.563 z m 2.94,0 h 1.626 V 67.71 h -1.626 z m 3.003,0 h 1.626 V 67.71 h -1.626 z m 3.003,0 h 1.626 V 67.71 h -1.626 z m 3.002,0 h 1.628 V 67.71 h -1.628 z m 3.003,0 h 1.564 V 67.71 h -1.564 z"
       fill="#23a3c2"
       id="path8"
       style="fill-rule:evenodd" />
    <path
       d="m 100.993,26.677 h 19.818 v 19.817 h -19.818 z m 1.651,1.652 h 1.563 v 16.514 h -1.563 z m 2.94,0 h 1.626 v 16.514 h -1.626 z m 3.003,0 h 1.626 v 16.514 h -1.626 z m 3.003,0 h 1.626 v 16.514 h -1.626 z m 3.002,0 h 1.628 v 16.514 h -1.628 z m 3.003,0 h 1.564 v 16.514 h -1.564 z m 6.264,21.214 h 19.818 v 19.818 h -19.818 z m 1.652,1.652 h 1.563 V 67.71 h -1.563 z m 2.94,0 h 1.626 V 67.71 h -1.626 z m 3.002,0 h 1.626 V 67.71 h -1.626 z m 3.003,0 h 1.627 V 67.71 h -1.627 z m 3.003,0 h 1.627 V 67.71 h -1.627 z m 3.003,0 h 1.564 V 67.71 h -1.564 z"
       fill="#34bbde"
       id="path9"
       style="fill-rule:evenodd" />
    <path
       d="m 123.859,26.677 h 19.818 v 19.817 h -19.818 z m 1.652,1.652 h 1.563 v 16.514 h -1.563 z m 2.94,0 h 1.626 v 16.514 h -1.626 z m 3.002,0 h 1.626 v 16.514 h -1.626 z m 3.003,0 h 1.627 v 16.514 h -1.627 z m 3.003,0 h 1.627 v 16.514 h -1.627 z m 3.003,0 h 1.564 v 16.514 h -1.564 z"
       fill="#23a3c2"
       id="path10"
       style="fill-rule:evenodd" />
    <path
       d="m 123.859,3.81 h 19.818 v 19.82 h -19.818 z m 1.652,1.651 h 1.563 v 16.516 h -1.563 V 5.46 Z m 2.94,0 h 1.626 v 16.516 h -1.626 V 5.46 Z m 3.002,0 h 1.626 v 16.516 h -1.626 V 5.46 Z m 3.003,0 h 1.627 v 16.516 h -1.627 V 5.46 Z m 3.003,0 h 1.627 v 16.516 h -1.627 V 5.46 Z m 3.003,0 h 1.564 v 16.516 h -1.564 V 5.46 Z"
       fill="#34bbde"
       id="path11"
       style="fill-rule:evenodd" />
    <path
       d="m 146.725,49.543 h 19.818 v 19.818 h -19.818 z m 1.65,1.652 h 1.565 V 67.71 h -1.564 V 51.195 Z m 2.94,0 h 1.627 V 67.71 h -1.626 V 51.195 Z m 3.004,0 h 1.627 V 67.71 h -1.627 z m 3.002,0 h 1.627 V 67.71 h -1.627 z m 3.004,0 h 1.626 V 67.71 h -1.626 z m 3.002,0 h 1.564 V 67.71 h -1.564 z"
       fill="#23a3c2"
       id="path12"
       style="fill-rule:evenodd" />
    <path
       d="m 96.704,101.492 a 5.468,5.468 0 1 1 -0.002,10.935 5.468,5.468 0 0 1 0.002,-10.935"
       fill="#d3ecec"
       id="path13"
       style="fill-rule:evenodd" />
    <path
       d="m 96.704,103.043 c 0.5,0 0.977,0.094 1.417,0.265 a 1.598,1.598 0 0 0 0.798,2.98 c 0.605,0 1.13,-0.335 1.402,-0.831 a 3.915,3.915 0 1 1 -3.617,-2.414 M 0,90.162 h 254.327 c -5.537,-1.404 -17.52,-3.302 -15.544,-10.56 -10.07,11.652 -34.353,8.175 -40.482,2.43 -6.824,9.898 -46.554,6.135 -49.325,-1.576 -8.556,10.041 -35.067,10.041 -43.623,0 -2.773,7.711 -42.502,11.474 -49.327,1.575 -6.128,5.746 -30.41,9.223 -40.48,-2.428 C 17.522,86.86 5.539,88.758 0,90.163"
       fill="#364548"
       id="path14"
       style="fill-rule:evenodd" />
    <path
       d="m 111.237,140.89 c -13.54,-6.425 -20.971,-15.16 -25.106,-24.694 -5.03,1.435 -11.075,2.353 -18.1,2.747 -2.646,0.148 -5.43,0.224 -8.35,0.224 -3.368,0 -6.917,-0.1 -10.643,-0.297 12.417,12.41 27.692,21.964 55.976,22.138 2.088,0 4.16,-0.04 6.223,-0.118"
       fill="#bdd9d7"
       id="path15"
       style="fill-rule:evenodd" />
    <path
       d="m 91.16,124.994 c -1.873,-2.543 -3.69,-5.739 -5.026,-8.8 -5.03,1.437 -11.077,2.355 -18.103,2.75 4.826,2.619 11.727,5.046 23.13,6.05"
       fill="#d3ecec"
       id="path16"
       style="fill-rule:evenodd" />
  </g>
</svg>
